<svg width="537" height="158" viewBox="0 0 537 158" fill="none" xmlns="http://www.w3.org/2000/svg">
<path d="M533 157.342H471.313C469.104 157.342 467.313 155.532 467.313 153.3V82.6802C467.313 80.4479 469.104 78.6382 471.313 78.6382H533C535.209 78.6382 537 80.4479 537 82.6802V92.3175C537 94.5498 535.209 96.3595 533 96.3595H489.76C487.55 96.3595 485.76 98.1692 485.76 100.402V135.578C485.76 137.811 487.55 139.62 489.76 139.62H508.917C511.126 139.62 512.917 137.811 512.917 135.578V126.616C512.917 123.106 517.04 121.264 519.609 123.627L535.692 138.418C536.525 139.184 537 140.269 537 141.407V153.3C537 155.532 535.209 157.342 533 157.342Z" fill="black"/>
<path d="M405.924 157.342H394.452C392.243 157.342 390.452 155.532 390.452 153.3V82.6802C390.452 80.4479 392.243 78.6382 394.452 78.6382H407.825C409.139 78.6382 410.37 79.2906 411.116 80.3836L432.352 111.461C434.581 114.724 439.643 113.13 439.643 109.164V82.6802C439.643 80.4479 441.434 78.6382 443.643 78.6382H454.602C456.811 78.6382 458.602 80.4479 458.602 82.6802V153.3C458.602 155.532 456.811 157.342 454.602 157.342H441.824C440.465 157.342 439.198 156.644 438.462 155.489L417.286 122.285C415.125 118.896 409.924 120.443 409.924 124.475V153.3C409.924 155.532 408.133 157.342 405.924 157.342Z" fill="black"/>
<path d="M377.229 157.342H315.542C313.333 157.342 311.542 155.532 311.542 153.3V143.644C311.542 141.419 313.322 139.612 315.524 139.602L333.563 139.52C335.765 139.51 337.545 137.704 337.545 135.478V100.402C337.545 98.1692 335.754 96.3595 333.545 96.3595H315.542C313.333 96.3595 311.542 94.5498 311.542 92.3175V82.6802C311.542 80.4479 313.333 78.6382 315.542 78.6382H377.229C379.438 78.6382 381.229 80.4479 381.229 82.6802V92.3175C381.229 94.5498 379.438 96.3595 377.229 96.3595H359.746C357.537 96.3595 355.746 98.1692 355.746 100.402V135.578C355.746 137.811 357.537 139.62 359.746 139.62H377.229C379.438 139.62 381.229 141.43 381.229 143.662V153.3C381.229 155.532 379.438 157.342 377.229 157.342Z" fill="black"/>
<path d="M277.861 100.519V153.3C277.861 155.532 276.07 157.342 273.861 157.342H263.659C261.45 157.342 259.659 155.532 259.659 153.3V100.519C259.659 98.2865 257.868 96.4769 255.659 96.4769H237.656C235.447 96.4769 233.656 94.6672 233.656 92.4348V82.6802C233.656 80.4479 235.447 78.6382 237.656 78.6382H299.344C301.553 78.6382 303.344 80.4479 303.344 82.6802V92.4348C303.344 94.6672 301.553 96.4769 299.344 96.4769H281.861C279.652 96.4769 277.861 98.2865 277.861 100.519Z" fill="black"/>
<path d="M170.827 95.7709H209.021C218.099 95.7709 225.458 88.3345 225.458 79.1613C225.458 78.8724 225.226 78.6382 224.94 78.6382H168.771C161.591 78.6382 155.771 84.5196 155.771 91.7747V113.687C155.771 120.943 161.591 126.824 168.771 126.824H208.123C210.332 126.824 212.123 128.634 212.123 130.866V135.677C212.123 137.884 210.352 139.674 208.168 139.674H172.029C163.05 139.674 155.771 147.029 155.771 156.102C155.771 156.787 156.32 157.342 156.998 157.342H212.458C219.638 157.342 225.458 151.46 225.458 144.205V122.292C225.458 115.037 219.638 109.156 212.458 109.156H173.106C170.897 109.156 169.106 107.346 169.106 105.114V97.5097C169.106 96.5494 169.877 95.7709 170.827 95.7709Z" fill="black"/>
<path d="M143.573 157.342H81.8855C79.6764 157.342 77.8855 155.532 77.8855 153.3V143.644C77.8855 141.419 79.6654 139.612 81.8675 139.602L99.9061 139.52C102.108 139.51 103.888 137.704 103.888 135.478V100.402C103.888 98.1692 102.097 96.3595 99.8881 96.3595H81.8855C79.6764 96.3595 77.8855 94.5498 77.8855 92.3175V82.6802C77.8855 80.4479 79.6764 78.6382 81.8855 78.6382H143.573C145.782 78.6382 147.573 80.4479 147.573 82.6802V92.3175C147.573 94.5498 145.782 96.3595 143.573 96.3595H126.09C123.881 96.3595 122.09 98.1692 122.09 100.402V135.578C122.09 137.811 123.881 139.62 126.09 139.62H143.573C145.782 139.62 147.573 141.43 147.573 143.662V153.3C147.573 155.532 145.782 157.342 143.573 157.342Z" fill="black"/>
<path d="M65.687 157.342H4C1.79086 157.342 0 155.532 0 153.3V82.6802C0 80.4479 1.79086 78.6382 4 78.6382H14.4466C16.6557 78.6382 18.4466 80.4479 18.4466 82.6802V135.578C18.4466 137.811 20.2374 139.62 22.4466 139.62H65.687C67.8962 139.62 69.687 141.43 69.687 143.662V153.3C69.687 155.532 67.8962 157.342 65.687 157.342Z" fill="black"/>
<path d="M529.045 0.540039C533.438 0.540316 537 4.30817 537 8.95605V56.2979C537 60.9456 533.438 64.7136 529.045 64.7139H7.95508C3.56169 64.7136 0.000204915 60.9456 0 56.2979V8.95605C0.000101359 4.30817 3.56163 0.540312 7.95508 0.540039H529.045ZM358.915 6.89551C354.497 6.89552 350.915 10.4772 350.915 14.8955V58.2744H451.921V6.89551H358.915ZM221.71 9.81445C217.292 9.81462 213.71 13.3964 213.71 17.8145V49.6621C213.71 52.4836 215.998 54.7715 218.819 54.7715C221.641 54.7713 223.928 52.4834 223.928 49.6621V27.7402C223.928 23.322 227.509 19.7402 231.928 19.7402H251.66C253.595 19.7402 255.164 21.3085 255.164 23.2432C255.164 25.1779 253.595 26.7461 251.66 26.7461H236.307C231.888 26.7461 228.307 30.3279 228.307 34.7461V46.7715C228.307 51.1896 231.888 54.7715 236.307 54.7715H260.71C263.773 54.7715 266.257 52.2879 266.257 49.2246C266.257 46.1613 263.773 43.6777 260.71 43.6777H242.902C240.323 43.6775 238.232 41.5863 238.232 39.0068C238.233 37.7172 239.278 36.6719 240.567 36.6719H258.257C262.675 36.6718 266.257 33.0901 266.257 28.6719V17.8145C266.257 13.3963 262.675 9.81449 258.257 9.81445H221.71ZM337.107 44.8457C334.898 44.8458 333.107 46.6366 333.107 48.8457V54.7715H343.033V44.8457H337.107ZM397.126 10.3984C399.335 10.3984 401.126 12.1894 401.126 14.3984V50.7715C401.126 52.9805 399.335 54.7715 397.126 54.7715H395.112C392.903 54.7714 391.112 52.9805 391.112 50.7715V43.9375C390.628 44.1452 390.096 44.2617 389.536 44.2617H378.959C377.815 44.2617 376.725 43.7715 375.966 42.915L373.742 40.4053C371.455 37.8244 373.287 33.7532 376.735 33.7529H389.536C390.096 33.7529 390.629 33.8685 391.112 34.0762V23.0752C391.112 20.8661 389.321 19.0752 387.112 19.0752H369.623C367.414 19.0752 365.623 20.8661 365.623 23.0752V50.7715C365.623 52.9804 363.832 54.7713 361.623 54.7715H359.002C356.793 54.7714 355.002 52.9804 355.002 50.7715V14.3984C355.002 12.1895 356.793 10.3985 359.002 10.3984H397.126ZM443.834 10.3984C446.043 10.3984 447.834 12.1894 447.834 14.3984V16.3896C447.834 18.5988 446.043 20.3896 443.834 20.3896H437.316C435.107 20.3897 433.317 22.1806 433.316 24.3896V40.7803C433.317 42.9893 435.107 44.7802 437.316 44.7803H443.834C446.043 44.7803 447.834 46.5711 447.834 48.7803V50.7715C447.834 52.9805 446.043 54.7715 443.834 54.7715H412.133C409.924 54.7715 408.133 52.9805 408.133 50.7715V48.7617C408.133 46.5599 409.912 44.7718 412.114 44.7617L418.965 44.7314C421.167 44.7214 422.946 42.9334 422.946 40.7314V24.3896C422.946 22.1806 421.155 20.3896 418.946 20.3896H412.133C409.924 20.3896 408.133 18.5988 408.133 16.3896V14.3984C408.133 12.1894 409.924 10.3985 412.133 10.3984H443.834ZM464.387 44.8457C462.178 44.8457 460.387 46.6366 460.387 48.8457V54.7715H470.312V44.8457H464.387ZM491.486 10.3984C484.307 10.3984 478.486 16.2188 478.486 23.3984V24.5654C478.486 31.7451 484.307 37.5654 491.486 37.5654H514.051C516.051 37.5656 517.673 39.1872 517.673 41.1875V42.0605C517.673 43.579 516.441 44.8095 514.923 44.8096H487.748C482.633 44.8098 478.486 48.957 478.486 54.0723C478.486 54.4583 478.8 54.7715 479.186 54.7715H513.946C521.126 54.7712 526.946 48.9509 526.946 41.7715V40.6045C526.946 33.4249 521.126 27.6047 513.946 27.6045H491.532C489.449 27.6043 487.76 25.9148 487.76 23.8311V21.2549C487.76 20.5941 488.295 20.0576 488.956 20.0576H517.581C522.753 20.0576 526.946 15.8652 526.946 10.6934C526.946 10.5307 526.814 10.3987 526.651 10.3984H491.486ZM285.971 10.1064C278.791 10.1066 272.971 15.9269 272.971 23.1064V41.4795C272.971 48.659 278.791 54.4794 285.971 54.4795H317.412C321.727 54.4795 325.226 50.9812 325.226 46.666C325.226 45.3383 324.149 44.2617 322.821 44.2617H290.486C286.456 44.2617 283.189 40.9944 283.188 36.9639V26.4541C283.189 22.7461 286.194 19.7404 289.902 19.7402H322.959C324.211 19.7401 325.225 18.7254 325.226 17.4736C325.226 13.4051 321.927 10.1064 317.858 10.1064H285.971ZM295.741 26.1621C293 26.1621 290.778 28.3843 290.778 31.125C290.778 33.8658 293 36.0879 295.741 36.0879H319.679C322.42 36.0879 324.642 33.8658 324.642 31.125C324.641 28.3843 322.419 26.1621 319.679 26.1621H295.741Z" fill="url(#paint0_linear_25_2)"/>
<defs>
<linearGradient id="paint0_linear_25_2" x1="0" y1="32.6268" x2="223.397" y2="32.6268" gradientUnits="userSpaceOnUse">
<stop stop-color="white" stop-opacity="0"/>
<stop offset="1"/>
</linearGradient>
</defs>
</svg>
