<svg width="540" height="154" viewBox="0 0 540 154" fill="none" xmlns="http://www.w3.org/2000/svg">
<path d="M532 93C536.418 93 540 96.5817 540 101V146C540 150.418 536.418 154 532 154H8C3.58172 154 0 150.418 0 146V101C5.15422e-07 96.5817 3.58172 93 8 93H532ZM215.359 100C214.056 100 213 101.056 213 102.359V143.583C213 144.886 214.056 145.942 215.359 145.942H251.747C253.05 145.942 254.106 144.886 254.106 143.583V137.958C254.106 136.655 253.05 135.598 251.747 135.598H226.24C224.937 135.597 223.881 134.541 223.881 133.238V102.359C223.881 101.056 222.825 100 221.521 100H215.359ZM261.303 100C260 100 258.942 101.056 258.942 102.359V107.985C258.942 109.288 260 110.345 261.303 110.345H271.922C273.225 110.345 274.281 111.401 274.281 112.704V133.18C274.281 134.479 273.231 135.534 271.933 135.54L261.292 135.588C259.993 135.594 258.942 136.648 258.942 137.947V143.583C258.942 144.886 260 145.942 261.303 145.942H297.689C298.993 145.942 300.05 144.886 300.05 143.583V137.958C300.05 136.655 298.993 135.598 297.689 135.598H287.377C286.074 135.597 285.018 134.541 285.018 133.238V112.704C285.018 111.401 286.074 110.345 287.377 110.345H297.689C298.993 110.345 300.05 109.288 300.05 107.985V102.359C300.05 101.056 298.993 100 297.689 100H261.303ZM312.554 100C308.319 100 304.886 103.433 304.886 107.668V120.46C304.886 124.695 308.319 128.128 312.554 128.128H335.767C337.07 128.128 338.126 129.184 338.126 130.487V133.297C338.126 134.585 337.081 135.629 335.793 135.629H314.476C309.179 135.629 304.886 139.922 304.886 145.219C304.886 145.618 305.21 145.942 305.609 145.942H338.324C342.559 145.942 345.992 142.509 345.992 138.274V125.483C345.992 121.248 342.559 117.815 338.324 117.814H315.111C313.808 117.814 312.752 116.758 312.752 115.455V111.017C312.752 110.456 313.206 110.001 313.767 110.001H336.297C341.651 110.001 345.992 105.66 345.992 100.306C345.992 100.137 345.855 100 345.687 100H312.554ZM353.188 100C351.885 100 350.828 101.056 350.828 102.359V108.054C350.828 109.357 351.884 110.413 353.188 110.413H363.807C365.11 110.413 366.167 111.469 366.167 112.772V143.583C366.167 144.886 367.223 145.942 368.526 145.942H374.544C375.847 145.942 376.903 144.886 376.903 143.583V112.772C376.903 111.47 377.96 110.413 379.263 110.413H389.575C390.878 110.413 391.935 109.357 391.935 108.054V102.359C391.935 101.056 390.878 100 389.575 100H353.188ZM399.131 100C397.828 100 396.772 101.056 396.771 102.359V107.985C396.772 109.288 397.828 110.345 399.131 110.345H409.75C411.053 110.345 412.109 111.401 412.109 112.704V133.18C412.109 134.479 411.06 135.534 409.761 135.54L399.12 135.588C397.821 135.594 396.771 136.648 396.771 137.947V143.583C396.771 144.886 397.828 145.942 399.131 145.942H435.519C436.821 145.942 437.878 144.886 437.878 143.583V137.958C437.878 136.655 436.821 135.598 435.519 135.598H425.206C423.903 135.598 422.846 134.541 422.846 133.238V112.704C422.846 111.401 423.903 110.345 425.206 110.345H435.519C436.821 110.345 437.878 109.288 437.878 107.985V102.359C437.878 101.056 436.821 100 435.519 100H399.131ZM445.678 100C444.375 100 443.318 101.056 443.318 102.359V143.583C443.318 144.886 444.375 145.942 445.678 145.942H452.444C453.747 145.942 454.804 144.886 454.804 143.583V126.757C454.804 124.403 457.871 123.501 459.146 125.479L471.638 144.861C472.072 145.535 472.819 145.942 473.621 145.942H481.159C482.462 145.942 483.519 144.886 483.519 143.583V102.359C483.518 101.056 482.462 100 481.159 100H474.694C473.391 100 472.335 101.056 472.335 102.359V117.819C472.335 120.134 469.348 121.065 468.033 119.16L455.508 101.019C455.067 100.381 454.341 100 453.565 100H445.678ZM491.016 100C489.713 100 488.656 101.056 488.656 102.359V143.583C488.656 144.886 489.713 145.942 491.016 145.942H527.403C528.706 145.942 529.763 144.886 529.763 143.583V136.641C529.763 135.977 529.483 135.344 528.992 134.896L519.505 126.262C517.99 124.883 515.558 125.958 515.558 128.007V133.238C515.558 134.541 514.5 135.598 513.197 135.598H501.897C500.594 135.598 499.538 134.541 499.538 133.238V112.704C499.538 111.401 500.594 110.345 501.897 110.345H527.403C528.706 110.345 529.763 109.288 529.763 107.985V102.359C529.763 101.056 528.706 100 527.403 100H491.016Z" fill="url(#paint0_linear_7_2)"/>
<path d="M8 82H9.5C13.9183 82 17.5 78.4183 17.5 74V30C17.5 25.5817 21.0817 22 25.5 22H67C69.2091 22 71 23.7909 71 26V30C71 32.2091 69.2091 34 67 34H33C28.5817 34 25 37.5817 25 42V74C25 78.4183 28.5817 82 33 82H82C86.4183 82 90 78.4183 90 74V71C90 66.5817 86.4183 63 82 63H50C45.5817 63 42 59.4183 42 55C42 52.7909 43.7909 51 46 51H82C86.4183 51 90 47.4183 90 43V13C90 8.58172 86.4183 5 82 5H8C3.58172 5 0 8.58172 0 13V74C0 78.4183 3.58172 82 8 82Z" fill="black"/>
<path d="M101.5 68.5V18.5C101.5 11.3203 107.32 5.5 114.5 5.5H178.382C185.351 5.5 191 11.1491 191 18.1176C191 20.2618 189.262 22 187.118 22H130.5C124.149 22 119 27.1487 119 33.5V51.5C119 58.4036 124.596 64 131.5 64H187C189.209 64 191 65.7909 191 68V68.5C191 75.6797 185.18 81.5 178 81.5H114.5C107.32 81.5 101.5 75.6797 101.5 68.5Z" fill="black"/>
<path d="M132 38V45C132 47.7614 134.239 50 137 50H185C187.761 50 190 47.7614 190 45V38C190 35.2386 187.761 33 185 33H137C134.239 33 132 35.2386 132 38Z" fill="black"/>
<rect x="204.5" y="65" width="17" height="17" rx="4" fill="black"/>
<rect x="422.5" y="65" width="17" height="17" rx="4" fill="black"/>
<path d="M471.432 22.5442H520.461C529.319 22.5442 536.5 15.3633 536.5 6.50517C536.5 6.22617 536.274 6 535.995 6H466.5C459.32 6 453.5 11.8203 453.5 19V39.5306C453.5 46.7103 459.32 52.5306 466.5 52.5306H516.617C518.826 52.5306 520.617 54.3215 520.617 56.5306V60.9388C520.617 63.1479 518.826 64.9388 516.617 64.9388H469.364C460.603 64.9388 453.5 72.0413 453.5 80.8027C453.5 81.464 454.036 82 454.697 82H523.5C530.68 82 536.5 76.1797 536.5 69V48.4694C536.5 41.2897 530.68 35.4694 523.5 35.4694H473.383C471.174 35.4694 469.383 33.6785 469.383 31.4694V24.5936C469.383 23.4618 470.3 22.5442 471.432 22.5442Z" fill="black"/>
<path d="M400 0C404.418 0 408 3.58172 408 8V80C408 84.4183 404.418 88 400 88H243C238.582 88 235 84.4183 235 80V8C235 3.58172 238.582 0 243 0H400ZM246 6C243.791 6 242 7.79086 242 10V78C242 80.2091 243.791 82 246 82H256.19C258.4 82 260.19 80.2091 260.19 78V24.8604C260.19 22.6513 261.981 20.8605 264.19 20.8604H299.849C302.058 20.8604 303.849 22.6512 303.849 24.8604V46H272.889C269.44 46.0002 267.609 50.0714 269.896 52.6523L278.756 62.6523C279.515 63.5091 280.605 64 281.75 64H303.849V78C303.849 80.2091 305.64 82 307.849 82H317C319.209 82 321 80.2091 321 78V10C321 7.79086 319.209 6 317 6H246ZM337 6C334.791 6 333 7.79086 333 10V19.1123C333 21.3214 334.791 23.1123 337 23.1123H354.373C356.582 23.1123 358.373 24.9033 358.373 27.1123V60.791C358.373 62.993 356.593 64.7809 354.392 64.791L336.982 64.8691C334.78 64.879 333 66.6672 333 68.8691V78C333 80.2091 334.791 82 337 82H397C399.209 82 401 80.2091 401 78V68.8877C401 66.6786 399.209 64.8877 397 64.8877H380.135C377.926 64.8877 376.135 63.0967 376.135 60.8877V27.1123C376.135 24.9033 377.926 23.1123 380.135 23.1123H397C399.209 23.1123 401 21.3214 401 19.1123V10C401 7.79086 399.209 6 397 6H337Z" fill="black"/>
<defs>
<linearGradient id="paint0_linear_7_2" x1="0" y1="123.5" x2="540" y2="123.5" gradientUnits="userSpaceOnUse">
<stop stop-color="white" stop-opacity="0"/>
<stop offset="0.403846"/>
</linearGradient>
</defs>
</svg>
