<svg width="887" height="259" viewBox="0 0 887 259" fill="none" xmlns="http://www.w3.org/2000/svg">
<path d="M880.393 259H778.5C774.851 259 771.893 256.011 771.893 252.324V135.676C771.893 131.989 774.851 129 778.5 129H880.393C884.042 129 887 131.989 887 135.676V151.595C887 155.282 884.042 158.272 880.393 158.272H808.97C805.321 158.272 802.363 161.261 802.363 164.948V223.052C802.363 226.739 805.321 229.728 808.97 229.728H840.613C844.262 229.728 847.22 226.739 847.22 223.052V208.249C847.22 202.451 854.031 199.408 858.275 203.311L884.84 227.742C886.216 229.007 887 230.8 887 232.68V252.324C887 256.011 884.042 259 880.393 259Z" fill="black"/>
<path d="M670.492 259H651.544C647.895 259 644.937 256.011 644.937 252.324V135.676C644.937 131.989 647.895 129 651.544 129H673.632C675.803 129 677.836 130.078 679.069 131.883L714.145 183.216C717.828 188.606 726.189 185.972 726.189 179.422V135.676C726.189 131.989 729.147 129 732.796 129H750.898C754.547 129 757.505 131.989 757.505 135.676V252.324C757.505 256.011 754.547 259 750.898 259H729.791C727.546 259 725.454 257.848 724.238 255.94L689.26 201.095C685.69 195.497 677.099 198.052 677.099 204.711V252.324C677.099 256.011 674.141 259 670.492 259Z" fill="black"/>
<path d="M623.095 259H521.203C517.554 259 514.595 256.011 514.595 252.324V236.375C514.595 232.699 517.535 229.715 521.173 229.699L550.968 229.563C554.606 229.547 557.546 226.562 557.546 222.887V164.948C557.546 161.261 554.588 158.272 550.939 158.272H521.203C517.554 158.272 514.595 155.282 514.595 151.595V135.676C514.595 131.989 517.554 129 521.203 129H623.095C626.744 129 629.702 131.989 629.702 135.676V151.595C629.702 155.282 626.744 158.272 623.095 158.272H594.218C590.569 158.272 587.611 161.261 587.611 164.948V223.052C587.611 226.739 590.569 229.728 594.218 229.728H623.095C626.744 229.728 629.702 232.718 629.702 236.405V252.324C629.702 256.011 626.744 259 623.095 259Z" fill="black"/>
<path d="M458.962 165.142V252.324C458.962 256.011 456.004 259 452.355 259H435.504C431.855 259 428.897 256.011 428.897 252.324V165.142C428.897 161.455 425.939 158.465 422.29 158.465H392.554C388.905 158.465 385.947 155.476 385.947 151.789V135.676C385.947 131.989 388.905 129 392.554 129H494.446C498.095 129 501.053 131.989 501.053 135.676V151.789C501.053 155.476 498.095 158.465 494.446 158.465H465.569C461.92 158.465 458.962 161.455 458.962 165.142Z" fill="black"/>
<path d="M282.166 157.299H345.255C360.249 157.299 372.405 145.016 372.405 129.864C372.405 129.387 372.022 129 371.549 129H278.771C266.912 129 257.298 138.715 257.298 150.698V186.893C257.298 198.877 266.912 208.592 278.771 208.592H343.771C347.42 208.592 350.378 211.581 350.378 215.268V223.216C350.378 226.861 347.454 229.816 343.846 229.816H284.151C269.321 229.816 257.298 241.965 257.298 256.952C257.298 258.083 258.205 259 259.324 259H350.932C362.791 259 372.405 249.285 372.405 237.301V201.107C372.405 189.123 362.791 179.408 350.932 179.408H285.931C282.282 179.408 279.324 176.419 279.324 172.732V160.171C279.324 158.585 280.597 157.299 282.166 157.299Z" fill="black"/>
<path d="M237.149 259H135.256C131.607 259 128.649 256.011 128.649 252.324V236.375C128.649 232.699 131.589 229.715 135.226 229.699L165.022 229.563C168.659 229.547 171.599 226.562 171.599 222.887V164.948C171.599 161.261 168.641 158.272 164.992 158.272H135.256C131.607 158.272 128.649 155.282 128.649 151.595V135.676C128.649 131.989 131.607 129 135.256 129H237.149C240.798 129 243.756 131.989 243.756 135.676V151.595C243.756 155.282 240.798 158.272 237.149 158.272H208.271C204.622 158.272 201.664 161.261 201.664 164.948V223.052C201.664 226.739 204.622 229.728 208.271 229.728H237.149C240.798 229.728 243.756 232.718 243.756 236.405V252.324C243.756 256.011 240.798 259 237.149 259Z" fill="black"/>
<path d="M108.5 259H6.60708C2.95809 259 0 256.011 0 252.324V135.676C0 131.989 2.95808 129 6.60707 129H23.8624C27.5114 129 30.4695 131.989 30.4695 135.676V223.052C30.4695 226.739 33.4276 229.728 37.0765 229.728H108.5C112.149 229.728 115.107 232.718 115.107 236.405V252.324C115.107 256.011 112.149 259 108.5 259Z" fill="black"/>
<path d="M873.859 0C881.117 7.93321e-05 887 6.22388 887 13.9014V92.0986C887 99.7761 881.117 106 873.859 106H13.1406C5.88333 106 0.000140257 99.7761 0 92.0986V13.9014C0.000139703 6.22387 5.88333 6.59739e-05 13.1406 0H873.859ZM587.631 10.498C583.213 10.498 579.631 14.0798 579.631 18.498V95.3643H746.47V10.498H587.631ZM658.568 16.2842C660.777 16.2845 662.568 18.0753 662.568 20.2842V85.5781C662.568 87.7867 660.777 89.5778 658.568 89.5781H650.027C647.819 89.578 646.028 87.7868 646.027 85.5781V72.2188H624.78C623.636 72.2187 622.545 71.7276 621.786 70.8711L613.493 61.5127C611.206 58.9317 613.039 54.8594 616.487 54.8594H646.027V34.6152C646.027 32.4063 644.236 30.6154 642.027 30.6152H607.925C605.716 30.6152 603.925 32.4062 603.925 34.6152V85.5781C603.924 87.7867 602.133 89.5778 599.925 89.5781H590.382C588.173 89.5781 586.382 87.7869 586.382 85.5781V20.2842C586.382 18.0751 588.173 16.2842 590.382 16.2842H658.568ZM735.719 16.2842C737.928 16.2844 739.719 18.0752 739.719 20.2842V28.7871C739.719 30.996 737.928 32.7869 735.719 32.7871H719.739C717.53 32.7871 715.739 34.5781 715.739 36.7871V69.0742C715.739 71.2832 717.53 73.0742 719.739 73.0742H735.719C737.928 73.0744 739.719 74.8653 739.719 77.0742V85.5781C739.718 87.7868 737.927 89.578 735.719 89.5781H678.141C675.932 89.5781 674.141 87.7869 674.141 85.5781V77.0566C674.141 74.8545 675.921 73.0665 678.123 73.0566L694.628 72.9824C696.83 72.9724 698.61 71.1843 698.61 68.9824V36.7871C698.61 34.5783 696.819 32.7874 694.61 32.7871H678.141C675.932 32.7871 674.141 30.996 674.141 28.7871V20.2842C674.141 18.0752 675.932 16.2842 678.141 16.2842H735.719ZM361 15.3193C356.582 15.3193 353 18.9012 353 23.3193V81.5771C353 85.9954 356.582 89.5771 361 89.5771H361.877C366.295 89.577 369.877 85.9954 369.877 81.5771V39.7139C369.877 35.2957 373.459 31.7139 377.877 31.7139H417.472C419.681 31.714 421.472 33.505 421.472 35.7139V39.2871C421.472 41.496 419.681 43.2869 417.472 43.2871H385.109C380.691 43.2873 377.109 46.8689 377.109 51.2871V81.5771C377.109 85.9953 380.691 89.577 385.109 89.5771H431.795C436.213 89.577 439.795 85.9954 439.795 81.5771V79.2539C439.795 74.8357 436.213 71.254 431.795 71.2539H401.22C396.959 71.2539 393.504 67.7999 393.504 63.5391C393.504 61.4087 395.231 59.6819 397.361 59.6816H431.795C436.213 59.6815 439.795 56.0997 439.795 51.6816V23.3193C439.795 18.9013 436.213 15.3195 431.795 15.3193H361ZM554.217 73.1826C552.008 73.1826 550.217 74.9735 550.217 77.1826V89.5771H566.611V73.1826H554.217ZM764.453 73.1826C762.244 73.1826 760.453 74.9735 760.453 77.1826V89.5771H776.848V73.1826H764.453ZM803.349 16.2842C796.169 16.2843 790.349 22.1045 790.349 29.2842V48.1572C790.349 55.3369 796.169 61.1571 803.349 61.1572H851.076C853.285 61.1574 855.076 62.9483 855.076 65.1572V69.124C855.076 71.3329 853.285 73.1238 851.076 73.124H805.647C797.198 73.1242 790.349 79.9736 790.349 88.4229C790.349 89.0604 790.866 89.5771 791.504 89.5771H857.393C864.572 89.5771 870.393 83.7568 870.393 76.5771V57.7041C870.393 50.5244 864.572 44.7041 857.393 44.7041H809.666C807.457 44.7041 805.666 42.9131 805.666 40.7041V34.2158C805.666 33.1243 806.551 32.2393 807.643 32.2393H854.925C863.467 32.2393 870.392 25.314 870.393 16.7715C870.393 16.5024 870.174 16.2842 869.905 16.2842H803.349ZM463.885 15.8018C456.705 15.8019 450.885 21.6222 450.885 28.8018V76.0947C450.885 83.2743 456.705 89.0946 463.885 89.0947H524.292C531.42 89.0946 537.197 83.317 537.197 76.1895C537.197 73.9963 535.42 72.2188 533.227 72.2188H479.816C473.159 72.2187 467.762 66.8207 467.762 60.1631V42.8047C467.762 36.6796 472.727 31.7139 478.853 31.7139H533.453C535.521 31.7139 537.197 30.0375 537.197 27.9697C537.197 21.2496 531.75 15.8018 525.029 15.8018H463.885ZM485.299 42.3223C482.537 42.3223 480.299 44.5609 480.299 47.3223V53.7168C480.299 56.4782 482.537 58.7168 485.299 58.7168H531.233C533.995 58.7167 536.233 56.4781 536.233 53.7168V47.3223C536.233 44.561 533.995 42.3224 531.233 42.3223H485.299Z" fill="url(#paint0_linear_18_563)"/>
<defs>
<linearGradient id="paint0_linear_18_563" x1="0" y1="53" x2="369" y2="53" gradientUnits="userSpaceOnUse">
<stop stop-color="white" stop-opacity="0"/>
<stop offset="1"/>
</linearGradient>
</defs>
</svg>
