<svg width="551" height="134" viewBox="0 0 551 134" fill="none" xmlns="http://www.w3.org/2000/svg">
<path d="M15 82H16.5C20.9183 82 24.5 78.4183 24.5 74V30C24.5 25.5817 28.0817 22 32.5 22H74C76.2091 22 78 23.7909 78 26V30C78 32.2091 76.2091 34 74 34H40C35.5817 34 32 37.5817 32 42V74C32 78.4183 35.5817 82 40 82H89C93.4183 82 97 78.4183 97 74V71C97 66.5817 93.4183 63 89 63H57C52.5817 63 49 59.4183 49 55C49 52.7909 50.7909 51 53 51H89C93.4183 51 97 47.4183 97 43V13C97 8.58172 93.4183 5 89 5H15C10.5817 5 7 8.58172 7 13V74C7 78.4183 10.5817 82 15 82Z" fill="white"/>
<path d="M108.5 68.5V18.5C108.5 11.3203 114.32 5.5 121.5 5.5H185.382C192.351 5.5 198 11.1491 198 18.1176C198 20.2618 196.262 22 194.118 22H137.5C131.149 22 126 27.1487 126 33.5V51.5C126 58.4036 131.596 64 138.5 64H194C196.209 64 198 65.7909 198 68V68.5C198 75.6797 192.18 81.5 185 81.5H121.5C114.32 81.5 108.5 75.6797 108.5 68.5Z" fill="white"/>
<path d="M139 38V45C139 47.7614 141.239 50 144 50H192C194.761 50 197 47.7614 197 45V38C197 35.2386 194.761 33 192 33H144C141.239 33 139 35.2386 139 38Z" fill="white"/>
<rect x="211.5" y="65" width="17" height="17" rx="4" fill="white"/>
<rect x="429.5" y="65" width="17" height="17" rx="4" fill="white"/>
<path fill-rule="evenodd" clip-rule="evenodd" d="M250.5 0C246.082 0 242.5 3.58172 242.5 8V80C242.5 84.4183 246.082 88 250.5 88H407.5C411.918 88 415.5 84.4183 415.5 80V8C415.5 3.58172 411.918 0 407.5 0H250.5ZM324.5 6L253.5 6C251.291 6 249.5 7.79086 249.5 10L249.5 78C249.5 80.2091 251.291 82 253.5 82H263.691C265.9 82 267.691 80.2091 267.691 78L267.691 24.8603C267.691 22.6512 269.482 20.8603 271.691 20.8603H280.684H299.395L307.349 20.8603C309.558 20.8603 311.349 22.6512 311.349 24.8603V46H280.389C276.94 46 275.108 50.0718 277.395 52.6528L286.256 62.6528C287.015 63.5096 288.105 64 289.25 64H311.349V78C311.349 80.2091 313.14 82 315.349 82H324.5C326.709 82 328.5 80.2091 328.5 78V10C328.5 7.79086 326.709 6 324.5 6ZM344.5 82H404.5C406.709 82 408.5 80.2091 408.5 78V68.8874C408.5 66.6783 406.709 64.8874 404.5 64.8874H387.634C385.425 64.8874 383.634 63.0966 383.634 60.8874V27.1126C383.634 24.9034 385.425 23.1126 387.634 23.1126H404.5C406.709 23.1126 408.5 21.3217 408.5 19.1126V10C408.5 7.79086 406.709 6 404.5 6H344.5C342.291 6 340.5 7.79086 340.5 10V19.1126C340.5 21.3217 342.291 23.1126 344.5 23.1126H361.873C364.082 23.1126 365.873 24.9034 365.873 27.1126V60.7913C365.873 62.9934 364.093 64.7813 361.891 64.7912L344.482 64.8695C342.28 64.8794 340.5 66.6674 340.5 68.8695V78C340.5 80.2091 342.291 82 344.5 82Z" fill="white"/>
<path d="M478.432 22.5442H527.461C536.319 22.5442 543.5 15.3633 543.5 6.50517C543.5 6.22617 543.274 6 542.995 6H473.5C466.32 6 460.5 11.8203 460.5 19V39.5306C460.5 46.7103 466.32 52.5306 473.5 52.5306H523.617C525.826 52.5306 527.617 54.3215 527.617 56.5306V60.9388C527.617 63.1479 525.826 64.9388 523.617 64.9388H476.364C467.603 64.9388 460.5 72.0413 460.5 80.8027C460.5 81.464 461.036 82 461.697 82H530.5C537.68 82 543.5 76.1797 543.5 69V48.4694C543.5 41.2897 537.68 35.4694 530.5 35.4694H480.383C478.174 35.4694 476.383 33.6785 476.383 31.4694V24.5936C476.383 23.4618 477.3 22.5442 478.432 22.5442Z" fill="white"/>
<path d="M9.68733 127V107.4H17.0233C18.6847 107.4 20.1127 107.671 21.3073 108.212C22.502 108.735 23.4167 109.5 24.0513 110.508C24.7047 111.497 25.0313 112.701 25.0313 114.12C25.0313 115.501 24.7047 116.696 24.0513 117.704C23.4167 118.693 22.502 119.459 21.3073 120C20.1127 120.523 18.6847 120.784 17.0233 120.784H10.8353L11.7593 119.832V127H9.68733ZM23.0713 127L18.0313 119.888H20.2713L25.3393 127H23.0713ZM11.7593 120L10.8353 119.02H16.9673C18.9273 119.02 20.4113 118.591 21.4193 117.732C22.446 116.873 22.9593 115.669 22.9593 114.12C22.9593 112.552 22.446 111.339 21.4193 110.48C20.4113 109.621 18.9273 109.192 16.9673 109.192H10.8353L11.7593 108.212V120ZM40.1697 116.164H50.5297V117.928H40.1697V116.164ZM40.3937 125.208H52.1817V127H38.3217V107.4H51.7617V109.192H40.3937V125.208ZM62.3162 127L71.2762 107.4H73.3202L82.2802 127H80.0962L71.8642 108.604H72.7042L64.4722 127H62.3162ZM65.8442 121.764L66.4602 120.084H77.8562L78.4722 121.764H65.8442ZM93.9225 127V107.4H95.9945V125.208H106.97V127H93.9225ZM136.387 116.164H146.747V117.928H136.387V116.164ZM136.611 125.208H148.399V127H134.539V107.4H147.979V109.192H136.611V125.208ZM167.073 127.168C165.617 127.168 164.217 126.935 162.873 126.468C161.548 125.983 160.521 125.367 159.793 124.62L160.605 123.024C161.296 123.696 162.22 124.265 163.377 124.732C164.553 125.18 165.785 125.404 167.073 125.404C168.305 125.404 169.304 125.255 170.069 124.956C170.853 124.639 171.423 124.219 171.777 123.696C172.151 123.173 172.337 122.595 172.337 121.96C172.337 121.195 172.113 120.579 171.665 120.112C171.236 119.645 170.667 119.281 169.957 119.02C169.248 118.74 168.464 118.497 167.605 118.292C166.747 118.087 165.888 117.872 165.029 117.648C164.171 117.405 163.377 117.088 162.649 116.696C161.94 116.304 161.361 115.791 160.913 115.156C160.484 114.503 160.269 113.653 160.269 112.608C160.269 111.637 160.521 110.751 161.025 109.948C161.548 109.127 162.341 108.473 163.405 107.988C164.469 107.484 165.832 107.232 167.493 107.232C168.595 107.232 169.687 107.391 170.769 107.708C171.852 108.007 172.785 108.427 173.569 108.968L172.869 110.62C172.029 110.06 171.133 109.649 170.181 109.388C169.248 109.127 168.343 108.996 167.465 108.996C166.289 108.996 165.319 109.155 164.553 109.472C163.788 109.789 163.219 110.219 162.845 110.76C162.491 111.283 162.313 111.88 162.313 112.552C162.313 113.317 162.528 113.933 162.957 114.4C163.405 114.867 163.984 115.231 164.693 115.492C165.421 115.753 166.215 115.987 167.073 116.192C167.932 116.397 168.781 116.621 169.621 116.864C170.48 117.107 171.264 117.424 171.973 117.816C172.701 118.189 173.28 118.693 173.709 119.328C174.157 119.963 174.381 120.793 174.381 121.82C174.381 122.772 174.12 123.659 173.597 124.48C173.075 125.283 172.272 125.936 171.189 126.44C170.125 126.925 168.753 127.168 167.073 127.168ZM190.83 127V109.192H183.942V107.4H199.79V109.192H192.902V127H190.83ZM207.38 127L216.34 107.4H218.384L227.344 127H225.16L216.928 108.604H217.768L209.536 127H207.38ZM210.908 121.764L211.524 120.084H222.92L223.536 121.764H210.908ZM241.81 127V109.192H234.922V107.4H250.77V109.192H243.882V127H241.81ZM264.328 116.164H274.688V117.928H264.328V116.164ZM264.552 125.208H276.34V127H262.48V107.4H275.92V109.192H264.552V125.208ZM302.203 127L311.163 107.4H313.207L322.167 127H319.983L311.751 108.604H312.591L304.359 127H302.203ZM305.731 121.764L306.347 120.084H317.743L318.359 121.764H305.731ZM333.809 127V107.4H335.881V127H333.809ZM371.791 127.168C370.335 127.168 368.935 126.935 367.591 126.468C366.265 125.983 365.239 125.367 364.511 124.62L365.323 123.024C366.013 123.696 366.937 124.265 368.095 124.732C369.271 125.18 370.503 125.404 371.791 125.404C373.023 125.404 374.021 125.255 374.787 124.956C375.571 124.639 376.14 124.219 376.495 123.696C376.868 123.173 377.055 122.595 377.055 121.96C377.055 121.195 376.831 120.579 376.383 120.112C375.953 119.645 375.384 119.281 374.675 119.02C373.965 118.74 373.181 118.497 372.323 118.292C371.464 118.087 370.605 117.872 369.747 117.648C368.888 117.405 368.095 117.088 367.367 116.696C366.657 116.304 366.079 115.791 365.631 115.156C365.201 114.503 364.987 113.653 364.987 112.608C364.987 111.637 365.239 110.751 365.743 109.948C366.265 109.127 367.059 108.473 368.123 107.988C369.187 107.484 370.549 107.232 372.211 107.232C373.312 107.232 374.404 107.391 375.487 107.708C376.569 108.007 377.503 108.427 378.287 108.968L377.587 110.62C376.747 110.06 375.851 109.649 374.899 109.388C373.965 109.127 373.06 108.996 372.183 108.996C371.007 108.996 370.036 109.155 369.271 109.472C368.505 109.789 367.936 110.219 367.563 110.76C367.208 111.283 367.031 111.88 367.031 112.552C367.031 113.317 367.245 113.933 367.675 114.4C368.123 114.867 368.701 115.231 369.411 115.492C370.139 115.753 370.932 115.987 371.791 116.192C372.649 116.397 373.499 116.621 374.339 116.864C375.197 117.107 375.981 117.424 376.691 117.816C377.419 118.189 377.997 118.693 378.427 119.328C378.875 119.963 379.099 120.793 379.099 121.82C379.099 122.772 378.837 123.659 378.315 124.48C377.792 125.283 376.989 125.936 375.907 126.44C374.843 126.925 373.471 127.168 371.791 127.168ZM396.279 127V119.72L396.755 121.008L388.439 107.4H390.651L397.959 119.356H396.783L404.091 107.4H406.163L397.847 121.008L398.323 119.72V127H396.279ZM422.77 127.168C421.314 127.168 419.914 126.935 418.57 126.468C417.245 125.983 416.218 125.367 415.49 124.62L416.302 123.024C416.993 123.696 417.917 124.265 419.074 124.732C420.25 125.18 421.482 125.404 422.77 125.404C424.002 125.404 425.001 125.255 425.766 124.956C426.55 124.639 427.12 124.219 427.474 123.696C427.848 123.173 428.034 122.595 428.034 121.96C428.034 121.195 427.81 120.579 427.362 120.112C426.933 119.645 426.364 119.281 425.654 119.02C424.945 118.74 424.161 118.497 423.302 118.292C422.444 118.087 421.585 117.872 420.726 117.648C419.868 117.405 419.074 117.088 418.346 116.696C417.637 116.304 417.058 115.791 416.61 115.156C416.181 114.503 415.966 113.653 415.966 112.608C415.966 111.637 416.218 110.751 416.722 109.948C417.245 109.127 418.038 108.473 419.102 107.988C420.166 107.484 421.529 107.232 423.19 107.232C424.292 107.232 425.384 107.391 426.466 107.708C427.549 108.007 428.482 108.427 429.266 108.968L428.566 110.62C427.726 110.06 426.83 109.649 425.878 109.388C424.945 109.127 424.04 108.996 423.162 108.996C421.986 108.996 421.016 109.155 420.25 109.472C419.485 109.789 418.916 110.219 418.542 110.76C418.188 111.283 418.01 111.88 418.01 112.552C418.01 113.317 418.225 113.933 418.654 114.4C419.102 114.867 419.681 115.231 420.39 115.492C421.118 115.753 421.912 115.987 422.77 116.192C423.629 116.397 424.478 116.621 425.318 116.864C426.177 117.107 426.961 117.424 427.67 117.816C428.398 118.189 428.977 118.693 429.406 119.328C429.854 119.963 430.078 120.793 430.078 121.82C430.078 122.772 429.817 123.659 429.294 124.48C428.772 125.283 427.969 125.936 426.886 126.44C425.822 126.925 424.45 127.168 422.77 127.168ZM446.527 127V109.192H439.639V107.4H455.487V109.192H448.599V127H446.527ZM469.045 116.164H479.405V117.928H469.045V116.164ZM469.269 125.208H481.057V127H467.197V107.4H480.637V109.192H469.269V125.208ZM494.328 127V107.4H496.036L504.996 122.688H504.1L512.976 107.4H514.684V127H512.696V110.508H513.172L504.996 124.508H504.016L495.784 110.508H496.316V127H494.328ZM534.874 127.168C533.418 127.168 532.018 126.935 530.674 126.468C529.349 125.983 528.322 125.367 527.594 124.62L528.406 123.024C529.097 123.696 530.021 124.265 531.178 124.732C532.354 125.18 533.586 125.404 534.874 125.404C536.106 125.404 537.105 125.255 537.87 124.956C538.654 124.639 539.223 124.219 539.578 123.696C539.951 123.173 540.138 122.595 540.138 121.96C540.138 121.195 539.914 120.579 539.466 120.112C539.037 119.645 538.467 119.281 537.758 119.02C537.049 118.74 536.265 118.497 535.406 118.292C534.547 118.087 533.689 117.872 532.83 117.648C531.971 117.405 531.178 117.088 530.45 116.696C529.741 116.304 529.162 115.791 528.714 115.156C528.285 114.503 528.07 113.653 528.07 112.608C528.07 111.637 528.322 110.751 528.826 109.948C529.349 109.127 530.142 108.473 531.206 107.988C532.27 107.484 533.633 107.232 535.294 107.232C536.395 107.232 537.487 107.391 538.57 107.708C539.653 108.007 540.586 108.427 541.37 108.968L540.67 110.62C539.83 110.06 538.934 109.649 537.982 109.388C537.049 109.127 536.143 108.996 535.266 108.996C534.09 108.996 533.119 109.155 532.354 109.472C531.589 109.789 531.019 110.219 530.646 110.76C530.291 111.283 530.114 111.88 530.114 112.552C530.114 113.317 530.329 113.933 530.758 114.4C531.206 114.867 531.785 115.231 532.494 115.492C533.222 115.753 534.015 115.987 534.874 116.192C535.733 116.397 536.582 116.621 537.422 116.864C538.281 117.107 539.065 117.424 539.774 117.816C540.502 118.189 541.081 118.693 541.51 119.328C541.958 119.963 542.182 120.793 542.182 121.82C542.182 122.772 541.921 123.659 541.398 124.48C540.875 125.283 540.073 125.936 538.99 126.44C537.926 126.925 536.554 127.168 534.874 127.168Z" fill="white"/>
</svg>
